<svg id="Capa_1" data-name="Capa 1" xmlns="http://www.w3.org/2000/svg" viewBox="0 0 400 400"><defs><style>.cls-1{fill:#f84c00;}</style></defs><title>carrito</title><path class="cls-1" d="M92,214.65c26.37,21.62,61.05,35.63,94.63,40C234,260.88,275.05,243.4,308.4,210c6.41-6.41-3.54-16.37-9.95-10-32.2,32.22-71.52,47.71-116.83,39.68-28-5-57.45-16.85-79.65-35.05-7-5.7-17,4.2-10,10Z"/><path class="cls-1" d="M193.35,250.25a139.47,139.47,0,0,0,28.4-34.69c6.77-12,7-26.7,15.32-37.65,6.84-9,15-9.62,22.9-2.93,15.29,12.91,9.94,36,4.69,52.38-2.78,8.64,10.8,12.34,13.57,3.74,7.86-24.43,9.12-74.24-28.35-75.08-16.25-.36-27.9,15.34-32.25,29.49-6.72,21.89-16.87,39.33-34.23,54.79-6.78,6,3.2,16,9.95,9.95Z"/><path class="cls-1" d="M237.68,248.18c13.82-16.72,22.41-38.24,19.37-60-1.25-8.94-14.81-5.14-13.57,3.74,2.26,16.18-5.53,33.94-15.75,46.32-5.73,6.93,4.18,16.94,10,10Z"/><path class="cls-1" d="M200.22,361c-88.67,0-160.81-72.14-160.81-160.81S111.55,39.38,200.22,39.38,361,111.51,361,200.19,288.9,361,200.22,361Zm0-309.12c-81.77,0-148.3,66.53-148.3,148.31s66.53,148.3,148.3,148.3S348.53,282,348.53,200.19,282,51.88,200.22,51.88Z"/></svg>