<svg id="Capa_1" data-name="Capa 1" xmlns="http://www.w3.org/2000/svg" viewBox="0 0 400 400"><defs><style>.cls-1{fill:#f84c00;}</style></defs><title>inicio</title><path class="cls-1" d="M200.14,314.8c-.47,0-.94,0-1.42,0-9.13-.51-16-6.24-16-13.32a1.62,1.62,0,0,1,0-.22l4-78.44c-1.13-3.39-13-12.79-20.89-19.05-15.48-12.27-24.24-19.52-24.24-25.75V106.42c0-7.15,7.66-12.75,17.44-12.75s17.43,5.6,17.43,12.75v47a5.65,5.65,0,0,0,6.25-.34V106.42c0-7.15,7.66-12.75,17.43-12.75s17.43,5.6,17.43,12.75V153.1a4.58,4.58,0,0,0,3.54,1.12,4.69,4.69,0,0,0,2.71-.78v-47c0-7.15,7.66-12.75,17.43-12.75s17.43,5.6,17.43,12.75V178c0,6.23-8.8,13.47-24.36,25.72-8,6.28-20,15.75-21.07,19.11,0,13.44,4.27,78.29,4.31,78.95a2.53,2.53,0,0,1,0,.28,10.88,10.88,0,0,1-3.62,7.88C210.68,313,205.59,314.8,200.14,314.8Zm-8.81-13.29c.08,1.79,3.06,4.37,7.88,4.64,4.33.27,7.45-1.19,8.82-2.49a2.68,2.68,0,0,0,.92-1.53c-.31-4.68-4.32-66.4-4.32-79.49,0-6.24,8.8-13.47,24.36-25.72,8-6.28,20-15.75,21.07-19.12V106.42c0-1.64-3.51-4.14-8.81-4.14s-8.81,2.5-8.81,4.14V153.8c0,4.95-4.61,8.75-10.95,9a13.33,13.33,0,0,1-9.76-3.39,8.53,8.53,0,0,1-2.78-6.15V106.42c0-1.64-3.51-4.14-8.81-4.14s-8.81,2.5-8.81,4.14v46.87a8.53,8.53,0,0,1-2.78,6.15,13.24,13.24,0,0,1-9.76,3.39c-6.34-.28-10.95-4.08-10.95-9V106.42c0-1.64-3.51-4.14-8.81-4.14s-8.82,2.5-8.82,4.14v71.39c1,3.36,13,12.86,21,19.17,15.43,12.23,24.16,19.46,24.16,25.66a1.7,1.7,0,0,1,0,.22ZM150.19,177.73"/><path class="cls-1" d="M200.22,365c-88.67,0-160.81-72.14-160.81-160.81S111.55,43.38,200.22,43.38,361,115.51,361,204.19,288.9,365,200.22,365Zm0-309.12c-81.77,0-148.3,66.53-148.3,148.31s66.53,148.3,148.3,148.3S348.53,286,348.53,204.19,282,55.88,200.22,55.88Z"/></svg>