<svg id="Capa_1" data-name="Capa 1" xmlns="http://www.w3.org/2000/svg" viewBox="0 0 400 400"><defs><style>.cls-1{fill:#f84c00;}</style></defs><title>inicio</title><path class="cls-1" d="M202.07,218.22a67.38,67.38,0,1,1,67.37-67.38A67.45,67.45,0,0,1,202.07,218.22Zm0-126.14a58.76,58.76,0,1,0,58.75,58.76A58.83,58.83,0,0,0,202.07,92.08Z"/><path class="cls-1" d="M282.77,297.23H116.55a4.31,4.31,0,0,1-4.27-4.88c.11-.82,11.86-82.75,89.64-82.75,4.78-.32,67.46-2.75,85.07,82.45a4.31,4.31,0,0,1-4.22,5.18Zm-161.06-8.62H277.39c-18.05-75.22-74.33-70.48-74.89-70.42l-.44,0h-.14C141.46,218.22,125.29,271.8,121.71,288.61Z"/><path class="cls-1" d="M200.22,359c-88.67,0-160.81-72.14-160.81-160.81S111.55,37.38,200.22,37.38,361,109.51,361,198.19,288.9,359,200.22,359Zm0-309.12c-81.77,0-148.3,66.53-148.3,148.31s66.53,148.3,148.3,148.3S348.53,280,348.53,198.19,282,49.88,200.22,49.88Z"/></svg>